HIERARCHY
ROOT joint_Root
{
	OFFSET 0.0 0.0 0.0
	CHANNELS 6 Xposition Yposition Zposition Zrotation Xrotation Yrotation 
	JOINT Hips
	{
		OFFSET -0.726466 93.3139 -2.00062
		CHANNELS 6 Xposition Yposition Zposition Zrotation Xrotation Yrotation 
		JOINT Spine
		{
			OFFSET 15.7357 0.0 0.0
			CHANNELS 6 Xposition Yposition Zposition Zrotation Xrotation Yrotation 
			JOINT Chest
			{
				OFFSET 8.98455 -0.406207 0.0
				CHANNELS 6 Xposition Yposition Zposition Zrotation Xrotation Yrotation 
				JOINT Neck
				{
					OFFSET 16.3773 0.0 0.0
					CHANNELS 6 Xposition Yposition Zposition Zrotation Xrotation Yrotation 
					JOINT Head
					{
						OFFSET 6.45672 0.0 0.0
						CHANNELS 6 Xposition Yposition Zposition Zrotation Xrotation Yrotation 
						End Site
						{
							OFFSET 0.0 0.0 0.0
						}
					}
				}
				JOINT Shoulder_L
				{
					OFFSET 12.9942 -0.242716 4.98039
					CHANNELS 6 Xposition Yposition Zposition Zrotation Xrotation Yrotation 
					JOINT UpperArm_L
					{
						OFFSET 5.34809 0.0 0.0
						CHANNELS 6 Xposition Yposition Zposition Zrotation Xrotation Yrotation 
						JOINT LowerArm_L
						{
							OFFSET 24.3286 1.87007e-05 0.0
							CHANNELS 6 Xposition Yposition Zposition Zrotation Xrotation Yrotation 
							JOINT Hand_L
							{
								OFFSET 22.2916 0.0 0.0
								CHANNELS 6 Xposition Yposition Zposition Zrotation Xrotation Yrotation 
								End Site
								{
									OFFSET 0.0 0.0 0.0
								}
							}
						}
					}
				}
				JOINT Shoulder_R
				{
					OFFSET 12.9945 -0.242716 -4.98039
					CHANNELS 6 Xposition Yposition Zposition Zrotation Xrotation Yrotation 
					JOINT UpperArm_R
					{
						OFFSET -5.34813 0.0 0.0
						CHANNELS 6 Xposition Yposition Zposition Zrotation Xrotation Yrotation 
						JOINT LowerArm_R
						{
							OFFSET -24.3289 0.000322201 0.0
							CHANNELS 6 Xposition Yposition Zposition Zrotation Xrotation Yrotation 
							JOINT Hand_R
							{
								OFFSET -22.2915 -0.000108084 0.0
								CHANNELS 6 Xposition Yposition Zposition Zrotation Xrotation Yrotation 
								End Site
								{
									OFFSET 0.0 0.0 0.0
								}
							}
						}
					}
				}
			}
		}
		JOINT UpperLeg_L
		{
			OFFSET -2.19248 -6.46944 0.0
			CHANNELS 6 Xposition Yposition Zposition Zrotation Xrotation Yrotation 
			JOINT LowerLeg_L
			{
				OFFSET 39.0811 0.0 -1.23785e-05
				CHANNELS 6 Xposition Yposition Zposition Zrotation Xrotation Yrotation 
				JOINT Foot_L
				{
					OFFSET 40.9854 0.0 -1.26872e-05
					CHANNELS 6 Xposition Yposition Zposition Zrotation Xrotation Yrotation 
					JOINT Toes_L
					{
						OFFSET 11.7543 0.0 0.0
						CHANNELS 6 Xposition Yposition Zposition Zrotation Xrotation Yrotation 
						End Site
						{
							OFFSET 0.0 0.0 0.0
						}
					}
				}
			}
		}
		JOINT UpperLeg_R
		{
			OFFSET -2.19251 6.46944 0.0
			CHANNELS 6 Xposition Yposition Zposition Zrotation Xrotation Yrotation 
			JOINT LowerLeg_R
			{
				OFFSET -39.0811 -0.00228153 -0.0401928
				CHANNELS 6 Xposition Yposition Zposition Zrotation Xrotation Yrotation 
				JOINT Foot_R
				{
					OFFSET -40.9854 0.0 0.0
					CHANNELS 6 Xposition Yposition Zposition Zrotation Xrotation Yrotation 
					JOINT Toes_R
					{
						OFFSET -11.7543 0.0 0.0
						CHANNELS 6 Xposition Yposition Zposition Zrotation Xrotation Yrotation 
						End Site
						{
							OFFSET 0.0 0.0 0.0
						}
					}
				}
			}
		}
	}
}
MOTION
Frames:	4
Frame Time:	0.0333333
0.000000 0.000000 0.000000 0.000000 0.000000 -0.000000 116.571000 89.387200 184.780000 -90.792400 26.157600 -178.001000 15.735700 0.000005 -0.000001 111.326000 80.492700 -111.006000 8.984550 -0.406207 -0.000000 9.980060 6.878010 0.038700 16.377300 -0.000001 -0.000001 9.121880 4.573740 -1.255670 6.456720 -0.000001 -0.000000 3.182630 2.635320 -6.417780 12.994200 -0.242716 4.980390 -88.211400 -3.217680 -60.910700 5.348090 -0.000007 -0.000001 -68.917000 15.780300 6.758550 24.328600 0.000019 0.000005 7.454990 12.427000 -31.302200 22.291600 -0.000001 0.000005 4.445350 5.542080 -8.337530 12.994500 -0.242716 -4.980390 89.512100 1.319500 -69.706300 -5.348130 -0.000001 -0.000004 -38.334000 9.236120 -35.048300 -24.328900 0.000322 -0.000009 0.281673 0.292433 -44.042800 -22.291500 -0.000108 -0.000004 5.964620 5.521430 -7.423170 -2.192480 -6.469440 -0.000000 176.236000 -20.552200 -28.239300 39.081100 -0.000007 -0.000012 0.032699 -0.073475 23.990500 40.985400 -0.000006 -0.000013 3.204040 -1.230140 -60.411500 11.754300 -0.000000 0.000003 -0.003402 -0.045082 -18.410300 -2.192510 6.469440 -0.000001 166.794000 33.162300 -174.238000 -39.081100 -0.002282 -0.040193 0.053857 -0.093437 28.414600 -40.985400 0.000008 0.000006 -9.493030 -9.481970 -73.025800 -11.754300 -0.000006 -0.000006 -0.552668 -0.677119 -18.700800
0.000000 0.000000 0.000000 0.000000 0.000000 -0.000000 118.026000 88.715500 183.050000 -89.923600 25.735200 -179.251000 15.735700 0.000005 -0.000001 112.919000 80.378200 -112.651000 8.984550 -0.406207 -0.000000 10.003200 7.452100 -0.116267 16.377300 -0.000001 -0.000001 8.824810 4.324440 -1.375160 6.456720 -0.000001 -0.000000 2.904300 1.713740 -6.697110 12.994200 -0.242716 4.980390 -88.242700 -3.099270 -60.426800 5.348090 -0.000007 -0.000001 -69.242600 14.130500 7.301050 24.328600 0.000019 0.000005 6.933020 11.838400 -30.655900 22.291600 -0.000001 0.000005 4.829590 5.535910 -8.057870 12.994500 -0.242716 -4.980390 89.575500 1.168830 -70.039700 -5.348130 -0.000001 -0.000004 -39.007000 7.709840 -36.816400 -24.328900 0.000322 -0.000009 0.490470 0.500119 -44.510400 -22.291500 -0.000108 -0.000004 6.616370 5.523190 -7.498540 -2.192480 -6.469440 -0.000000 174.128000 -21.279700 -30.446200 39.081100 -0.000007 -0.000012 0.045827 -0.127646 19.749200 40.985400 -0.000006 -0.000013 6.233540 -1.992780 -59.711400 11.754300 -0.000000 0.000003 -0.003840 -0.049778 -18.601500 -2.192510 6.469440 -0.000001 167.654000 32.708000 -173.561000 -39.081100 -0.002282 -0.040193 0.033186 -0.054278 28.834300 -40.985400 0.000008 0.000006 -10.609600 -9.755290 -74.176000 -11.754300 -0.000006 -0.000006 -0.793676 -0.951453 -19.311600
0.000000 0.000000 0.000000 0.000000 0.000000 -0.000000 119.427000 87.956200 180.889000 -89.065500 25.662800 179.474000 15.735700 0.000005 -0.000001 114.243000 80.340400 -114.105000 8.984550 -0.406207 -0.000000 9.908940 7.886050 -0.408453 16.377300 -0.000001 -0.000001 8.484430 4.142540 -1.401900 6.456720 -0.000001 -0.000000 2.670360 1.054950 -6.897560 12.994200 -0.242716 4.980390 -88.272000 -3.009450 -60.116500 5.348090 -0.000007 -0.000001 -69.774800 13.309400 7.885320 24.328600 0.000019 0.000005 6.630990 11.690600 -29.843700 22.291600 -0.000001 0.000005 4.825740 5.536180 -8.069830 12.994500 -0.242716 -4.980390 89.660700 0.953212 -70.406200 -5.348130 -0.000001 -0.000004 -40.568700 7.088080 -38.186900 -24.328900 0.000322 -0.000009 0.550718 0.554596 -44.860800 -22.291500 -0.000108 -0.000004 7.188460 5.525650 -7.605100 -2.192480 -6.469440 -0.000000 172.361000 -21.720100 -32.873000 39.081100 -0.000007 -0.000012 0.047925 -0.150002 17.718500 40.985400 -0.000006 -0.000013 8.503490 -4.314600 -58.876500 11.754300 -0.000000 0.000003 -0.004753 -0.059060 -18.979700 -2.192510 6.469440 -0.000001 167.986000 32.172800 -172.894000 -39.081100 -0.002282 -0.040193 -0.007316 0.018665 29.636200 -40.985400 0.000008 0.000006 -11.872700 -9.247160 -74.400600 -11.754300 -0.000006 -0.000006 -1.548920 -1.780750 -20.653500
0.000000 0.000000 0.000000 0.000000 0.000000 -0.000000 120.685000 87.277600 178.342000 -88.745500 25.908600 178.168000 15.735700 0.000005 -0.000001 115.292000 80.366600 -115.523000 8.984550 -0.406207 -0.000000 9.743770 8.178190 -1.160110 16.377300 -0.000001 -0.000001 8.139110 3.984040 -1.315920 6.456720 -0.000001 -0.000000 2.244230 0.579303 -7.109300 12.994200 -0.242716 4.980390 -88.505500 -2.612060 -60.209700 5.348090 -0.000007 -0.000001 -70.248600 13.254400 8.349620 24.328600 0.000019 0.000005 6.880290 12.472500 -29.192200 22.291600 -0.000001 0.000005 4.623240 5.535090 -8.020990 12.994500 -0.242716 -4.980390 89.649400 1.011520 -70.881300 -5.348130 -0.000001 -0.000004 -42.096100 7.459450 -39.011000 -24.328900 0.000322 -0.000009 0.330585 0.328417 -45.289800 -22.291500 -0.000108 -0.000004 7.623290 5.528150 -7.713880 -2.192480 -6.469440 -0.000000 171.366000 -21.556300 -36.130000 39.081100 -0.000007 -0.000012 0.135505 -0.382242 19.519600 40.985400 -0.000006 -0.000013 10.205800 -5.771870 -54.288700 11.754300 -0.000000 0.000003 -0.004412 -0.055669 -18.841500 -2.192510 6.469440 -0.000001 167.706000 31.236000 -172.778000 -39.081100 -0.002282 -0.040193 -0.068253 0.120327 30.738200 -40.985400 0.000008 0.000006 -13.212500 -8.639870 -73.104300 -11.754300 -0.000006 -0.000006 -2.950880 -3.185590 -23.250500
